# xmcd
#
# Track frame offsets: 
#        150
#        18537
#        45918
#        60927
#        77636
#        128826
#        145082
#        177081
#        202727
#        230303
#
# Disc length: 3394 seconds
#
# Revision: 0
# Processed by: cddbd v1.5.2PL0 Copyright (c) Steve Scherf et al.
# Submitted via: ExactAudioCopy v1.3
#
DISCID=6f0d400a
DTITLE=Eric Steckel - Early Pickin'
DYEAR=2007
DGENRE=Blues Rock
TTITLE0=Espirita
TTITLE1=Sad Nite Owl
TTITLE2=Char-Broiled
TTITLE3=Rude Mood
TTITLE4=Lenny
TTITLE5=Funky C Funky Do
TTITLE6=Born Under a Bad Sign
TTITLE7=Hideaway
TTITLE8=Bad Dog Blues
TTITLE9=Steppin' Out
EXTD=
EXTT0=
EXTT1=
EXTT2=
EXTT3=
EXTT4=
EXTT5=
EXTT6=
EXTT7=
EXTT8=
EXTT9=
PLAYORDER=
